<svg width="57" height="57" viewBox="0 0 57 57" fill="none" xmlns="http://www.w3.org/2000/svg">
<rect width="57" height="57" rx="17" fill="#CBD6F8"/>
<path fill-rule="evenodd" clip-rule="evenodd" d="M23.8949 16.25H34.105C35.6662 16.25 36.9254 16.25 37.9446 16.3346C38.9941 16.4218 39.9152 16.6059 40.7652 17.0475C42.0589 17.7195 43.1138 18.7744 43.7858 20.0681C44.2273 20.9181 44.4115 21.8392 44.4987 22.8887C44.5833 23.9079 44.5833 25.1671 44.5833 26.7284V31.2716C44.5833 32.8329 44.5833 34.0921 44.4987 35.1113C44.4115 36.1608 44.2273 37.0819 43.7858 37.9319C43.1138 39.2256 42.0589 40.2805 40.7652 40.9525C39.9152 41.3941 38.9941 41.5782 37.9446 41.6654C36.9254 41.75 35.6662 41.75 34.1049 41.75H23.895C22.3337 41.75 21.0745 41.75 20.0554 41.6654C19.0059 41.5782 18.0847 41.3941 17.2347 40.9525C15.941 40.2805 14.8861 39.2256 14.2141 37.9319C13.7726 37.0819 13.5884 36.1608 13.5012 35.1113C13.4166 34.0921 13.4166 32.8329 13.4166 31.2717V26.7283C13.4166 25.1671 13.4166 23.9079 13.5012 22.8887C13.5884 21.8392 13.7726 20.9181 14.2141 20.0681C14.8861 18.7744 15.941 17.7195 17.2347 17.0475C18.0847 16.6059 19.0059 16.4218 20.0554 16.3346C21.0745 16.25 22.3337 16.25 23.8949 16.25ZM19.4413 19.2682C20.6436 19.5503 21.7596 20.1481 22.6677 21.0129L26.831 24.978C27.4067 25.5263 27.778 25.8784 28.0824 26.1244C28.3731 26.3594 28.5099 26.4189 28.5856 26.442C28.8557 26.5246 29.1442 26.5246 29.4143 26.442C29.49 26.4189 29.6269 26.3594 29.9176 26.1244C30.2219 25.8784 30.5932 25.5263 31.1689 24.978L35.3322 21.0129C36.2403 20.1481 37.3563 19.5503 38.5586 19.2682C38.3205 19.2225 38.0423 19.1858 37.7101 19.1582C36.822 19.0845 35.6806 19.0833 34.0433 19.0833H23.9566C22.3193 19.0833 21.1779 19.0845 20.2898 19.1582C19.9576 19.1858 19.6794 19.2225 19.4413 19.2682ZM41.4816 21.9167H40.1562C39.0876 21.9167 38.06 22.3277 37.2862 23.0647L33.0839 27.0669C32.5583 27.5675 32.1036 28.0006 31.6988 28.3278C31.2704 28.6741 30.8076 28.9788 30.2429 29.1515C29.4328 29.3992 28.5671 29.3992 27.757 29.1515C27.1923 28.9788 26.7295 28.6741 26.3011 28.3278C25.8964 28.0006 25.4416 27.5675 24.916 27.0669L20.7137 23.0647C19.9399 22.3277 18.9123 21.9167 17.8437 21.9167H16.5183C16.4321 22.2236 16.3676 22.6086 16.3248 23.1232C16.2511 24.0113 16.25 25.1527 16.25 26.79V31.21C16.25 32.8473 16.2511 33.9887 16.3248 34.8768C16.3972 35.7479 16.532 36.2476 16.7285 36.6258C17.1317 37.402 17.7646 38.035 18.5408 38.4382C18.919 38.6346 19.4187 38.7694 20.2898 38.8418C21.1779 38.9155 22.3193 38.9167 23.9566 38.9167H34.0433C35.6806 38.9167 36.822 38.9155 37.7101 38.8418C38.5812 38.7694 39.0809 38.6346 39.4591 38.4382C40.2353 38.035 40.8682 37.402 41.2715 36.6258C41.4679 36.2476 41.6027 35.7479 41.6751 34.8768C41.7488 33.9887 41.75 32.8473 41.75 31.21V26.79C41.75 25.1527 41.7488 24.0113 41.6751 23.1232C41.6323 22.6086 41.5678 22.2236 41.4816 21.9167Z" fill="#150035"/>
</svg>
