<svg width="57" height="57" viewBox="0 0 57 57" fill="none" xmlns="http://www.w3.org/2000/svg">
<rect width="57" height="57" rx="17" fill="#CBD6F8"/>
<path d="M30.4167 38.9165C30.4167 39.6989 29.7825 40.3332 29.0001 40.3332C28.2176 40.3332 27.5834 39.6989 27.5834 38.9165C27.5834 38.1341 28.2176 37.4998 29.0001 37.4998C29.7825 37.4998 30.4167 38.1341 30.4167 38.9165Z" fill="#150035"/>
<path fill-rule="evenodd" clip-rule="evenodd" d="M25.0818 13.4165L25.1507 13.4165C25.1614 13.4165 25.1722 13.4165 25.183 13.4165H32.8171C32.8279 13.4165 32.8387 13.4165 32.8494 13.4165L32.9183 13.4165C32.9522 13.4165 32.9852 13.4165 33.0172 13.4165H33.2501C33.2733 13.4165 33.2964 13.4171 33.3194 13.4182C33.4414 13.4199 33.5501 13.4235 33.6525 13.4308C36.4648 13.6311 38.7022 15.8684 38.9024 18.6807C38.9168 18.8829 38.9168 19.1092 38.9167 19.4149L38.9167 36.3836C38.9167 37.5431 38.9168 38.5001 38.852 39.2793C38.7848 40.0887 38.6405 40.8322 38.2787 41.5287C37.7411 42.5637 36.8972 43.4076 35.8622 43.9452C35.1658 44.307 34.4222 44.4513 33.6128 44.5185C32.8337 44.5832 31.8767 44.5832 30.7172 44.5832H27.2829C26.1234 44.5832 25.1664 44.5832 24.3873 44.5185C23.5779 44.4513 22.8343 44.307 22.1379 43.9452C21.1029 43.4076 20.259 42.5637 19.7214 41.5287C19.3596 40.8322 19.2153 40.0887 19.1481 39.2793C19.0833 38.5001 19.0834 37.5431 19.0834 36.3835L19.0834 19.4149C19.0833 19.1092 19.0833 18.8829 19.0977 18.6807C19.2979 15.8684 21.5353 13.6311 24.3476 13.4308C24.45 13.4235 24.5587 13.4199 24.6807 13.4182C24.7037 13.4171 24.7268 13.4165 24.7501 13.4165H24.9829C25.0149 13.4165 25.0479 13.4165 25.0818 13.4165ZM25.1347 16.2498C24.7531 16.2498 24.6366 16.2507 24.5488 16.257C23.1427 16.3571 22.024 17.4758 21.9239 18.882C21.9176 18.9698 21.9167 19.0863 21.9167 19.4678V36.324C21.9167 37.558 21.9179 38.3968 21.9717 39.0448C22.0241 39.6758 22.119 39.998 22.2357 40.2226C22.5045 40.7401 22.9265 41.162 23.444 41.4309C23.6686 41.5476 23.9907 41.6425 24.6218 41.6949C25.2698 41.7487 26.1086 41.7498 27.3426 41.7498H30.6576C31.8915 41.7498 32.7303 41.7487 33.3783 41.6949C34.0094 41.6425 34.3315 41.5476 34.5561 41.4309C35.0736 41.162 35.4956 40.7401 35.7644 40.2226C35.8811 39.998 35.976 39.6758 36.0284 39.0448C36.0822 38.3968 36.0834 37.558 36.0834 36.324V19.4678C36.0834 19.0863 36.0825 18.9698 36.0762 18.882C35.9761 17.4758 34.8574 16.3571 33.4513 16.257C33.3635 16.2507 33.247 16.2498 32.8654 16.2498C32.7707 16.2498 32.7601 16.2501 32.7529 16.2504C32.5709 16.2573 32.3985 16.334 32.2716 16.4647C32.2666 16.4698 32.2594 16.4776 32.196 16.548L31.5037 17.3172L31.486 17.3367C31.4777 17.3458 31.4613 17.3635 31.4405 17.3844C31.3963 17.4289 31.3166 17.5041 31.2033 17.5787C31.0677 17.668 30.9184 17.7345 30.7612 17.7756C30.63 17.8099 30.5209 17.8188 30.4582 17.8219C30.4287 17.8234 30.4046 17.8237 30.3923 17.8238L30.3659 17.8239H27.6342L27.6078 17.8238C27.5955 17.8237 27.5714 17.8234 27.5419 17.8219C27.4792 17.8188 27.3701 17.8099 27.2389 17.7756C27.0817 17.7345 26.9324 17.668 26.7968 17.5787C26.6835 17.5041 26.6038 17.4289 26.5596 17.3844C26.5388 17.3635 26.5224 17.3458 26.5141 17.3367L26.4964 17.3172L25.8041 16.548C25.7407 16.4776 25.7335 16.4698 25.7285 16.4647C25.6016 16.334 25.4292 16.2573 25.2472 16.2504C25.24 16.2501 25.2294 16.2498 25.1347 16.2498Z" fill="#150035"/>
</svg>
