<svg width="298" height="186" viewBox="0 0 298 186" fill="none" xmlns="http://www.w3.org/2000/svg">
<path d="M37.3664 112.211C37.3781 112.533 37.5168 112.735 37.7874 112.8L39.9513 113.394L40.0041 114.259H32.4456L32.3645 113.429L34.6261 112.805C34.9202 112.713 35.0696 112.54 35.0814 112.28C35.1038 111.363 35.1165 110.244 35.1165 108.91V95.438C35.1165 94.3067 35.1038 93.3727 35.0814 92.6283C35.0696 92.3333 34.9377 92.1496 34.6779 92.0685L32.4095 91.4101L32.3635 90.5445C35.1136 90.6256 36.79 90.653 39.1366 90.5445L50.382 104.622C50.8323 105.188 51.2934 105.788 51.7663 106.418C51.6334 101.943 51.8552 96.8428 51.6969 92.5414C51.6852 92.2815 51.5416 92.1145 51.2592 92.0334L49.0944 91.4453L49.0426 90.5455H56.5835L56.6646 91.4111L54.3688 92.0695C54.1089 92.1506 53.977 92.3343 53.9653 92.6293C53.9301 93.3737 53.9135 94.3077 53.9135 95.4331V114.213L51.9685 114.398L38.6637 97.7122C38.272 97.2052 37.8158 96.6054 37.296 95.9069C37.4426 101.168 37.2296 107.056 37.3654 112.212L37.3664 112.211ZM38.4273 132.38C39.3388 132.38 40.1311 132.176 40.8149 131.768V130.028C40.1907 130.52 39.4238 130.76 38.5123 130.76C37.6839 130.76 37 130.508 36.4598 129.992C35.9196 129.476 35.6441 128.817 35.6441 128.012C35.6441 127.208 35.9078 126.561 36.4354 126.044C36.9756 125.528 37.636 125.264 38.439 125.264C39.2675 125.264 39.9992 125.481 40.6479 125.913V124.173C39.9884 123.824 39.2558 123.645 38.4283 123.645C37.1202 123.645 36.028 124.053 35.1644 124.869C34.3125 125.685 33.8797 126.729 33.8797 128.013C33.8797 129.285 34.3125 130.329 35.1751 131.157C36.0397 131.973 37.1192 132.381 38.4273 132.381V132.38ZM212.9 129.069H211.516V127.341H212.9H214.627V129.069V131.049C214.279 131.421 213.799 131.744 213.187 131.996C212.575 132.248 211.916 132.38 211.207 132.38C209.935 132.38 208.868 131.972 208.016 131.156C207.164 130.328 206.732 129.284 206.732 128.012C206.732 126.728 207.164 125.684 208.016 124.868C208.868 124.052 209.96 123.644 211.267 123.644C212.239 123.644 213.079 123.86 213.787 124.28V125.983C213.008 125.504 212.215 125.263 211.387 125.263C210.535 125.263 209.84 125.517 209.299 126.032C208.759 126.536 208.494 127.208 208.494 128.048C208.494 128.876 208.758 129.548 209.274 130.041C209.79 130.533 210.438 130.785 211.206 130.785C211.938 130.785 212.502 130.605 212.898 130.233V129.069H212.9ZM48.0344 129.98C47.542 129.464 47.3027 128.805 47.3027 128.013C47.3027 127.221 47.542 126.562 48.0344 126.045C48.5268 125.529 49.1501 125.265 49.8945 125.265C50.6389 125.265 51.2504 125.529 51.7418 126.045C52.2342 126.562 52.4863 127.221 52.4863 128.013C52.4863 128.805 52.2342 129.464 51.7418 129.98C51.2495 130.497 50.6379 130.76 49.8945 130.76C49.1501 130.76 48.5268 130.497 48.0344 129.98ZM45.5384 128.013C45.5384 129.225 45.9467 130.257 46.7742 131.108C47.6026 131.96 48.646 132.38 49.8945 132.38C51.142 132.38 52.1736 131.96 53.0021 131.108C53.8305 130.257 54.2506 129.225 54.2506 128.013C54.2506 126.788 53.8305 125.757 53.0021 124.918C52.1736 124.066 51.142 123.646 49.8945 123.646C48.646 123.646 47.6026 124.066 46.7742 124.918C45.9457 125.757 45.5384 126.789 45.5384 128.013ZM61.1936 132.212V126.465L63.1611 129.164H64.1214L66.0528 126.465V132.212H67.7575V123.814H66.0528L63.6173 127.294L61.1819 123.814H59.4654V132.212H61.1926H61.1936ZM75.0005 132.212V126.465L76.968 129.164H77.9283L79.8607 126.465V132.212H81.5654V123.814H79.8607L77.4252 127.294L74.9897 123.814H73.2733V132.212H75.0005ZM90.5599 132.38C91.616 132.38 92.4796 132.057 93.1517 131.408C93.8366 130.76 94.1716 129.848 94.1716 128.684V123.813H92.4435V128.744C92.4435 130.076 91.6756 130.76 90.5599 130.76C89.456 130.76 88.6872 130.076 88.6872 128.744V123.813H86.9717V128.684C86.9717 129.848 87.3078 130.76 87.9799 131.408C88.651 132.057 89.5156 132.38 90.559 132.38H90.5599ZM101.248 132.212V126.813L105.52 132.212H106.948V123.814H105.268V129.19L101.032 123.814H99.5555V132.212H101.248ZM114.239 132.212V123.814H112.522V132.212H114.239ZM124.062 132.38C124.974 132.38 125.765 132.176 126.45 131.768V130.028C125.826 130.52 125.058 130.76 124.147 130.76C123.318 130.76 122.635 130.508 122.094 129.992C121.555 129.476 121.278 128.817 121.278 128.012C121.278 127.208 121.542 126.561 122.071 126.044C122.61 125.528 123.271 125.264 124.074 125.264C124.903 125.264 125.634 125.481 126.283 125.913V124.173C125.623 123.824 124.891 123.645 124.063 123.645C122.755 123.645 121.663 124.053 120.799 124.869C119.947 125.685 119.515 126.729 119.515 128.013C119.515 129.285 119.947 130.329 120.81 131.157C121.675 131.973 122.755 132.381 124.062 132.381V132.38ZM132.662 132.212L133.489 130.269H137.041L137.869 132.212H139.705L136.105 123.765H134.448L130.848 132.212H132.661H132.662ZM135.266 125.925L136.489 128.84H134.03L135.266 125.925ZM142.713 125.361H145.364V132.212H147.093V125.361H149.757V123.814H142.713V125.361ZM156.472 132.212V123.814H154.756V132.212H156.472ZM164.244 129.98C163.751 129.464 163.511 128.805 163.511 128.013C163.511 127.221 163.751 126.562 164.244 126.045C164.735 125.529 165.359 125.265 166.103 125.265C166.847 125.265 167.459 125.529 167.951 126.045C168.442 126.562 168.695 127.221 168.695 128.013C168.695 128.805 168.442 129.464 167.951 129.98C167.459 130.497 166.846 130.76 166.103 130.76C165.359 130.76 164.735 130.497 164.244 129.98ZM161.748 128.013C161.748 129.225 162.156 130.257 162.983 131.108C163.812 131.96 164.856 132.38 166.104 132.38C167.352 132.38 168.384 131.96 169.212 131.108C170.041 130.257 170.46 129.225 170.46 128.013C170.46 126.788 170.041 125.757 169.212 124.918C168.384 124.066 167.352 123.646 166.104 123.646C164.856 123.646 163.812 124.066 162.983 124.918C162.156 125.757 161.748 126.789 161.748 128.013ZM177.367 132.212V126.813L181.639 132.212H183.067V123.814H181.387V129.19L177.151 123.814H175.675V132.212H177.367ZM195.805 132.212L196.633 130.269H200.185L201.013 132.212H202.849L199.249 123.765H197.593L193.993 132.212H195.805ZM198.41 125.925L199.634 128.84H197.174L198.41 125.925ZM226.18 132.212V130.665H221.608V128.505H225.184V126.981H221.608V125.361H226.047V123.814H219.879V132.212H226.179H226.18ZM232.907 132.212V126.813L237.179 132.212H238.607V123.814H236.927V129.19L232.691 123.814H231.215V132.212H232.907ZM248.382 132.38C249.294 132.38 250.086 132.176 250.77 131.768V130.028C250.146 130.52 249.379 130.76 248.466 130.76C247.639 130.76 246.955 130.508 246.414 129.992C245.874 129.476 245.598 128.817 245.598 128.012C245.598 127.208 245.862 126.561 246.39 126.044C246.93 125.528 247.591 125.264 248.394 125.264C249.222 125.264 249.954 125.481 250.603 125.913V124.173C249.943 123.824 249.211 123.645 248.383 123.645C247.075 123.645 245.983 124.053 245.118 124.869C244.266 125.685 243.835 126.729 243.835 128.013C243.835 129.285 244.266 130.329 245.13 131.157C245.995 131.973 247.074 132.381 248.382 132.381V132.38ZM260.017 132.212V128.409L263.258 123.814H261.278L259.178 126.801L257.09 123.814H255.051L258.302 128.445V132.212H260.018H260.017ZM65.8848 106.713C65.6005 107.461 63.9397 111.582 63.9397 112.246C63.9397 112.655 64.1771 112.81 64.5689 112.921L66.1906 113.394L66.2423 114.259H58.5862L58.4992 113.429C60.8605 112.722 61.0959 112.969 61.9321 110.959L70.3503 90.442L72.1732 90.1704L79.4601 110.74C80.2485 112.954 80.5523 112.74 82.8755 113.429L82.9224 114.259H72.3579L72.2768 113.429C75.3717 112.521 75.1626 113.403 72.819 106.713H65.8838H65.8848ZM69.5365 97.002L66.5598 104.947H72.2084L69.5365 97.002ZM93.8717 108.917L93.9059 112.193C93.9186 112.558 94.0446 112.776 94.2928 112.852L96.0532 113.429L96.105 114.259H86.1814L86.0944 113.429L88.3628 112.805C88.993 112.628 88.8357 111.905 88.8474 110.762L88.8533 95.438L88.8181 92.6283C88.8064 92.3333 88.6745 92.1496 88.4146 92.0685L86.1472 91.4101L86.0944 90.5445L94.1433 90.5328C97.4824 90.4361 100.997 90.3042 103.433 91.9288C104.881 92.8921 105.608 94.3057 105.608 96.1638C105.608 99.6475 103.654 101.532 100.38 102.591C102.47 105.657 103.639 107.895 105.532 110.773C106.678 112.514 107.388 113.068 109.312 113.461L109.376 114.333C108.055 114.519 104.508 114.761 103.225 114.35C101.346 113.747 100.268 111.712 99.2145 109.925C98.6987 109.048 95.9125 103.971 95.3664 103.544C94.9561 103.221 94.4383 103.281 93.8727 103.266V108.915L93.8717 108.917ZM93.8717 101.779C95.8168 101.893 97.798 101.94 99.0182 100.625C100.513 99.0145 100.536 94.7942 99.0651 93.2409C97.798 91.9025 95.721 92.0373 93.8717 92.2376V101.78V101.779ZM143.839 106.713C143.554 107.461 141.894 111.582 141.894 112.246C141.894 112.655 142.131 112.81 142.524 112.921L144.144 113.394L144.197 114.259H136.54L136.453 113.429C138.815 112.722 139.051 112.969 139.886 110.959L148.304 90.442L150.127 90.1704L157.414 110.74C158.202 112.954 158.506 112.74 160.83 113.429L160.876 114.259H150.312L150.231 113.429C153.325 112.521 153.116 113.403 150.773 106.713H143.838H143.839ZM147.491 97.002L144.514 104.947H150.162L147.491 97.002ZM171.715 114.208C169.731 114.208 167.838 114.225 166.037 114.26L165.951 113.43L168.657 112.686C168.94 112.594 169.084 112.414 169.096 112.143C169.118 111.301 169.13 110.21 169.13 108.878V92.347H165.964C164.926 92.347 164.043 92.9771 163.704 93.9579L162.709 96.8418L161.762 96.9981L161.324 90.6862L161.44 90.5475H182.13L182.234 90.6862L181.115 96.8594L180.168 97.0157L179.505 94.1914C179.249 93.0982 178.301 92.347 177.178 92.347H174.186V108.878C174.186 110.21 174.197 111.301 174.22 112.143C174.232 112.415 174.381 112.594 174.676 112.686L177.33 113.43L177.382 114.26C175.512 114.225 173.62 114.208 171.716 114.208H171.715ZM193.661 108.911L193.696 112.247C193.708 112.541 193.898 112.736 194.267 112.835L196.35 113.43L196.402 114.26H185.936L185.849 113.43L188.118 112.806C188.748 112.629 188.59 111.906 188.602 110.763L188.608 95.4389L188.573 92.6293C188.561 92.3343 188.429 92.1506 188.169 92.0695L185.901 91.4111L185.849 90.5455H196.315L196.402 91.4111L194.135 92.0344C193.541 92.1926 193.679 92.854 193.667 93.8573L193.661 108.911ZM212.336 105.789C212.549 106.435 212.751 107.053 212.93 107.653C214.477 103.055 216.571 98.06 218.175 93.4607C218.727 91.8771 218.171 92.0275 216.126 91.4472L216.074 90.5475H223.714L223.817 91.413C221.48 92.0842 221.217 91.8546 220.385 93.8827L212.082 114.296L210.311 114.464L203.058 94.0849C202.265 91.88 201.913 92.0646 199.66 91.413L199.591 90.5475H210.155L210.242 91.413C207.566 92.177 207.502 91.7813 208.603 94.9446L212.336 105.791V105.789ZM230.802 90.6149L243.587 90.5455L243.704 90.6842L242.654 96.3094L241.742 96.4432L241.132 94.1279C240.852 93.064 239.922 92.346 238.821 92.346H234.121V101.313L238.194 101.278C238.489 101.266 238.679 101.117 238.771 100.823L239.378 98.5094L240.492 98.4576V105.745L239.378 105.831L238.754 103.449C238.662 103.143 238.489 102.988 238.229 102.976L234.121 102.941L234.155 112.426H239.412C240.355 112.426 241.161 111.919 241.568 111.069L243.046 107.984L244.079 107.827L243.67 114.157L243.554 114.278L226.395 114.261L226.309 113.431L228.576 112.807C229.206 112.63 229.049 111.907 229.062 110.764L229.066 95.4399L229.032 92.6303C229.021 92.3352 228.888 92.1516 228.628 92.0705L226.36 91.4121L226.309 90.5465C227.889 90.5924 229.384 90.6159 230.803 90.6159L230.802 90.6149ZM260.698 92.1428C257.761 90.992 254.075 92.2219 254.075 95.4897C254.075 101.093 264.772 99.4873 264.772 107.421C264.772 112.567 260.261 114.777 255.345 114.777C253.302 114.777 251.293 114.455 249.309 113.814L249.206 113.663L250.105 107.576L251.15 107.403L252.42 112.591C255.245 113.894 259.891 113.05 259.891 109.129C259.891 103.412 249.228 105.156 249.228 97.215C249.228 92.4095 253.467 90.1645 258.097 90.1645C259.763 90.1645 261.663 90.4244 263.797 90.9431L263.896 91.0936L262.863 96.539L261.934 96.6894L260.698 92.1428ZM120.265 108.916L120.3 112.192C120.312 112.557 120.439 112.775 120.686 112.851L122.447 113.428L122.499 114.258H112.575L112.489 113.428L114.756 112.804C115.387 112.627 115.229 111.904 115.242 110.761L115.247 95.437L115.213 92.6274C115.201 92.3323 115.068 92.1487 114.808 92.0676L112.541 91.4091L112.489 90.5436L120.537 90.5318C123.877 90.4351 127.392 90.3032 129.826 91.9279C131.274 92.8911 132.001 94.3047 132.001 96.1628C132.001 99.6466 130.047 101.531 126.774 102.59C128.864 105.656 130.033 107.894 131.927 110.772C133.072 112.513 133.782 113.067 135.706 113.46L135.769 114.332C134.448 114.518 130.901 114.76 129.618 114.349C127.74 113.747 126.661 111.711 125.609 109.924C125.092 109.047 122.307 103.97 121.761 103.543C121.35 103.22 120.833 103.28 120.266 103.265V108.914L120.265 108.916ZM120.265 101.778C122.21 101.892 124.192 101.939 125.412 100.624C126.906 99.0135 126.93 94.7932 125.459 93.2399C124.192 91.9015 122.115 92.0363 120.265 92.2366V101.779V101.778Z" fill="#0D3245"/>
<path fill-rule="evenodd" clip-rule="evenodd" d="M69.5092 144.03C74.3577 144.03 78.2878 147.96 78.2878 152.809C78.2878 157.658 74.3577 161.588 69.5092 161.588C64.6597 161.588 60.7296 157.658 60.7296 152.809C60.7296 147.96 64.6597 144.03 69.5092 144.03ZM69.5092 150.139C70.9834 150.139 72.1791 151.335 72.1791 152.809C72.1791 154.284 70.9834 155.48 69.5092 155.48C68.034 155.48 66.8392 154.284 66.8392 152.809C66.8392 151.335 68.034 150.139 69.5092 150.139Z" fill="#0D3245"/>
<path fill-rule="evenodd" clip-rule="evenodd" d="M143.97 144.03C148.819 144.03 152.749 147.96 152.749 152.809C152.749 157.658 148.819 161.588 143.97 161.588C139.121 161.588 135.191 157.658 135.191 152.809C135.191 147.96 139.121 144.03 143.97 144.03ZM143.97 145.969C147.748 145.969 150.811 149.032 150.811 152.81C150.811 156.588 147.749 159.65 143.97 159.65C140.193 159.65 137.13 156.588 137.13 152.81C137.13 149.033 140.192 145.969 143.97 145.969Z" fill="#F9B56E"/>
<path fill-rule="evenodd" clip-rule="evenodd" d="M33.6219 152.178H60.752C60.7374 152.387 60.7296 152.597 60.7296 152.81C60.7296 153.24 60.7608 153.662 60.8204 154.075H33.6219V152.178ZM106.08 144.03C110.763 144.03 114.589 147.696 114.846 152.315C114.843 152.269 114.84 152.224 114.838 152.178H135.213C135.199 152.387 135.191 152.597 135.191 152.81C135.191 153.24 135.222 153.662 135.282 154.075H114.769C114.156 158.324 110.5 161.589 106.08 161.589C101.661 161.589 98.0051 158.324 97.3916 154.075H78.197C78.2566 153.662 78.2878 153.24 78.2878 152.81C78.2878 152.598 78.28 152.387 78.2654 152.178H97.3242L97.3154 152.315C97.5714 147.696 101.398 144.03 106.08 144.03ZM106.08 145.969C109.858 145.969 112.921 149.032 112.921 152.81C112.921 156.588 109.858 159.65 106.08 159.65C102.303 159.65 99.24 156.588 99.24 152.81C99.24 149.033 102.302 145.969 106.08 145.969ZM182.039 144.03C186.722 144.03 190.548 147.696 190.804 152.315C190.801 152.269 190.799 152.224 190.795 152.178H212.333C212.655 148.217 215.97 145.104 220.013 145.104C224.057 145.104 227.372 148.217 227.694 152.178H262.857V154.075H227.617C227.013 157.73 223.839 160.517 220.013 160.517C216.188 160.517 213.014 157.73 212.411 154.075H190.727C190.114 158.324 186.458 161.589 182.038 161.589C177.619 161.589 173.963 158.324 173.349 154.075H152.658C152.718 153.662 152.749 153.24 152.749 152.81C152.749 152.598 152.741 152.387 152.727 152.178H173.282L173.273 152.315C173.53 147.696 177.357 144.03 182.039 144.03ZM182.039 145.969C185.817 145.969 188.88 149.032 188.88 152.81C188.88 156.588 185.818 159.65 182.039 159.65C178.261 159.65 175.199 156.588 175.199 152.81C175.199 149.033 178.261 145.969 182.039 145.969ZM220.013 150.14C221.488 150.14 222.683 151.336 222.683 152.81C222.683 154.285 221.488 155.481 220.013 155.481C218.539 155.481 217.343 154.285 217.343 152.81C217.343 151.336 218.539 150.14 220.013 150.14Z" fill="#70B5BA"/>
<path d="M126.905 24.3246C134.19 24.3246 140.786 27.2779 145.559 32.0521C150.333 36.8264 153.286 43.4216 153.286 50.7055C153.286 56.3209 151.532 61.525 148.541 65.8029L145.885 63.7152C148.426 60.0146 149.913 55.5345 149.913 50.7065C149.913 44.3536 147.338 38.6005 143.174 34.4378C139.012 30.2751 133.259 27.6989 126.905 27.6989C120.553 27.6989 114.8 30.2751 110.637 34.4378C106.474 38.6005 103.899 44.3536 103.899 50.7065C103.899 57.0604 106.474 62.8126 110.637 66.9752C113.411 69.7497 116.892 71.8179 120.784 72.8905L119.948 76.1593C115.459 74.9342 111.447 72.5564 108.252 69.3599C103.478 64.5857 100.525 57.9905 100.525 50.7065C100.525 43.4216 103.478 36.8264 108.252 32.0531C113.026 27.2789 119.622 24.3256 126.905 24.3256V24.3246ZM122.201 82.2817L128.999 55.722L151.923 73.7444L135.481 74.0609L122.201 82.2817ZM126.905 33.1111C131.765 33.1111 136.163 35.0806 139.347 38.2644C142.53 41.4482 144.5 45.8473 144.5 50.7055C144.5 54.2703 143.44 57.587 141.618 60.3585L138.954 58.264C140.33 56.0737 141.128 53.4829 141.128 50.7055C141.128 46.7783 139.536 43.2233 136.963 40.65C134.39 38.0768 130.834 36.4844 126.906 36.4844C122.979 36.4844 119.424 38.0768 116.851 40.65C114.278 43.2233 112.686 46.7783 112.686 50.7055C112.686 54.6328 114.278 58.1878 116.851 60.761C118.527 62.4384 120.623 63.6986 122.966 64.3727L122.128 67.6415C119.191 66.815 116.564 65.2441 114.466 63.1457C111.282 59.9619 109.313 55.5628 109.313 50.7046C109.313 45.8463 111.282 41.4472 114.466 38.2634C117.649 35.0806 122.048 33.1101 126.906 33.1101L126.905 33.1111ZM126.905 42.5345C129.161 42.5345 131.204 43.4499 132.683 44.928C134.161 46.4061 135.076 48.4488 135.076 50.7046C135.076 52.0693 134.74 53.3549 134.149 54.4862L131.417 52.338C131.602 51.828 131.703 51.278 131.703 50.7046C131.703 49.3798 131.165 48.1802 130.297 47.3127C129.43 46.4452 128.23 45.9079 126.905 45.9079C125.581 45.9079 124.381 46.4452 123.514 47.3127C122.646 48.1802 122.109 49.3798 122.109 50.7046C122.109 52.0293 122.646 53.2289 123.514 54.0964C124.014 54.5966 124.624 54.9874 125.304 55.2277L124.466 58.5043C123.191 58.1048 122.05 57.4033 121.129 56.4811C119.651 55.003 118.735 52.9603 118.735 50.7046C118.735 48.4488 119.651 46.4061 121.129 44.928C122.607 43.4499 124.65 42.5345 126.905 42.5345Z" fill="#0D3245"/>
<path d="M158.694 68.4221C161.95 68.4221 164.897 69.7419 167.032 71.8755C169.165 74.0091 170.485 76.9575 170.485 80.2136H167.113C167.113 77.8895 166.17 75.7842 164.647 74.2602C163.124 72.7372 161.019 71.7944 158.694 71.7944V68.4221ZM158.806 42.4085C169.245 42.4085 178.697 46.6406 185.538 53.482C192.379 60.3224 196.611 69.7751 196.611 80.2136H193.238C193.238 70.7052 189.385 62.0965 183.153 55.8666C176.922 49.6358 168.314 45.7809 158.806 45.7809V42.4085ZM158.737 50.8765C166.838 50.8765 174.172 54.1609 179.482 59.4686C184.79 64.7772 188.075 72.1119 188.075 80.2136H184.701C184.701 73.0439 181.796 66.5532 177.097 61.8542C172.399 57.1562 165.907 54.2489 158.737 54.2489V50.8765ZM158.737 59.8877C164.349 59.8877 169.431 62.1629 173.109 65.841C176.788 69.5192 179.063 74.6011 179.063 80.2136H175.689C175.689 75.5321 173.792 71.2942 170.724 68.2257C167.657 65.1582 163.419 63.261 158.737 63.261V59.8886V59.8877Z" fill="#F9B56E"/>
</svg>
