<svg width="34" height="34" viewBox="0 0 34 34" fill="none" xmlns="http://www.w3.org/2000/svg">
<path fill-rule="evenodd" clip-rule="evenodd" d="M27.2157 2.92839L5.24164 8.4219C2.32105 9.15205 1.95648 13.1552 4.6971 14.4009L11.4674 17.4783C12.8555 18.1092 14.358 18.3371 15.8182 18.1816C15.6626 19.6417 15.8905 21.1443 16.5214 22.5323L19.5988 29.3026C20.8446 32.0433 24.8477 31.6786 25.5778 28.7581L31.0713 6.78405C31.6535 4.45548 29.5443 2.34625 27.2157 2.92839ZM12.6398 14.8989C13.9674 15.5024 15.4532 15.5485 16.7838 15.0765C17.2866 14.8981 17.7673 14.6457 18.2089 14.3214C18.2704 14.2763 18.3311 14.2297 18.3911 14.1818L21.6335 11.5878C22.1496 11.1749 22.8248 11.8501 22.4119 12.3662L19.8179 15.6087C19.77 15.6686 19.7235 15.7293 19.6783 15.7908C19.354 16.2324 19.1016 16.7131 18.9232 17.216C18.4512 18.5465 18.4974 20.0323 19.1008 21.3599L22.1782 28.1302C22.3138 28.4285 22.7496 28.3888 22.8291 28.0709L28.3226 6.09686C28.386 5.84337 28.1564 5.61375 27.9029 5.67713L5.92882 11.1706C5.61088 11.2501 5.57119 11.6859 5.86954 11.8215L12.6398 14.8989Z" fill="white"/>
</svg>
